<?xml version="1.0" encoding="UTF-8"?>
<svg xmlns="http://www.w3.org/2000/svg" xmlns:xlink="http://www.w3.org/1999/xlink" width="60px" height="60px" viewBox="0 0 60 60" version="1.1">
<defs>
<filter id="alpha" filterUnits="objectBoundingBox" x="0%" y="0%" width="100%" height="100%">
  <feColorMatrix type="matrix" in="SourceGraphic" values="0 0 0 0 1 0 0 0 0 1 0 0 0 0 1 0 0 0 1 0"/>
</filter>
<mask id="mask0">
  <g filter="url(#alpha)">
<rect x="0" y="0" width="60" height="60" style="fill:rgb(0%,0%,0%);fill-opacity:0.2;stroke:none;"/>
  </g>
</mask>
<clipPath id="clip1">
  <rect x="0" y="0" width="60" height="60"/>
</clipPath>
<g id="surface5" clip-path="url(#clip1)">
<path style=" stroke:none;fill-rule:nonzero;fill:rgb(100%,100%,100%);fill-opacity:1;" d="M 4.167969 30.417969 L 22.660156 11.925781 L 21.359375 10.625 L 2.863281 29.113281 C 2.375 29.605469 2.375 30.394531 2.863281 30.886719 L 4.167969 32.1875 C 3.933594 31.953125 3.800781 31.632812 3.800781 31.300781 C 3.800781 30.96875 3.933594 30.652344 4.167969 30.417969 Z M 27.476562 13.210938 L 24.425781 10.160156 L 30.421875 4.167969 C 30.65625 3.933594 30.96875 3.800781 31.300781 3.800781 C 31.636719 3.800781 31.949219 3.933594 32.183594 4.167969 L 30.882812 2.863281 C 30.648438 2.628906 30.335938 2.5 30 2.5 C 29.664062 2.5 29.351562 2.628906 29.117188 2.863281 L 23.125 8.859375 Z M 27.476562 13.210938 "/>
</g>
<linearGradient id="linear0" gradientUnits="userSpaceOnUse" x1="9.62" y1="9.627" x2="17.6" y2="17.607" gradientTransform="matrix(2.5,0,0,2.5,0,0)">
<stop offset="0" style="stop-color:rgb(0%,0%,0%);stop-opacity:0.101961;"/>
<stop offset="1" style="stop-color:rgb(0%,0%,0%);stop-opacity:0;"/>
</linearGradient>
<mask id="mask1">
  <g filter="url(#alpha)">
<rect x="0" y="0" width="60" height="60" style="fill:rgb(0%,0%,0%);fill-opacity:0.101961;stroke:none;"/>
  </g>
</mask>
<clipPath id="clip2">
  <rect x="0" y="0" width="60" height="60"/>
</clipPath>
<g id="surface8" clip-path="url(#clip2)">
<path style=" stroke:none;fill-rule:nonzero;fill:rgb(0%,0%,0%);fill-opacity:1;" d="M 57.132812 29.113281 L 55.886719 27.871094 C 56.375 28.359375 56.378906 29.148438 55.890625 29.640625 L 29.636719 55.890625 C 29.144531 56.363281 28.367188 56.363281 27.871094 55.890625 L 29.117188 57.136719 C 29.609375 57.609375 30.390625 57.609375 30.882812 57.136719 L 57.136719 30.886719 C 57.621094 30.394531 57.621094 29.601562 57.132812 29.113281 Z M 57.132812 29.113281 "/>
</g>
<linearGradient id="linear1" gradientUnits="userSpaceOnUse" x1="2.014" y1="7.34" x2="21.983" y2="16.652" gradientTransform="matrix(2.5,0,0,2.5,0,0)">
<stop offset="0" style="stop-color:rgb(100%,100%,100%);stop-opacity:0.2;"/>
<stop offset="1" style="stop-color:rgb(100%,100%,100%);stop-opacity:0;"/>
</linearGradient>
</defs>
<g id="surface1">
<path style=" stroke:none;fill-rule:nonzero;fill:rgb(18.823529%,23.529412%,25.882353%);fill-opacity:1;" d="M 58.90625 27.328125 C 58.902344 27.328125 58.902344 27.328125 58.90625 27.328125 L 32.65625 1.066406 C 31.238281 -0.355469 28.761719 -0.351562 27.351562 1.066406 L 1.09375 27.328125 C 0.390625 28.035156 0 28.988281 0 29.984375 C 0 30.984375 0.390625 31.925781 1.097656 32.636719 L 27.34375 58.898438 C 28.054688 59.609375 28.996094 60 30 60 C 31.003906 60 31.945312 59.609375 32.652344 58.898438 L 58.902344 32.636719 C 59.609375 31.925781 60 30.984375 60 29.984375 C 60 28.984375 59.609375 28.039062 58.90625 27.328125 Z M 58.90625 27.328125 "/>
<path style=" stroke:none;fill-rule:nonzero;fill:rgb(93.72549%,32.54902%,31.372549%);fill-opacity:1;" d="M 57.136719 30.886719 L 30.882812 57.136719 C 30.390625 57.605469 29.609375 57.605469 29.117188 57.136719 L 2.867188 30.886719 C 2.628906 30.652344 2.496094 30.332031 2.496094 30 C 2.496094 29.667969 2.628906 29.347656 2.863281 29.113281 L 21.359375 10.625 L 25.707031 14.976562 C 25.25 15.738281 25.003906 16.609375 25 17.5 C 25 19.824219 26.601562 21.761719 28.75 22.324219 L 28.75 37.675781 C 26.601562 38.238281 25 40.175781 25 42.5 C 25 45.257812 27.242188 47.5 30 47.5 C 32.757812 47.5 35 45.257812 35 42.5 C 35 40.175781 33.398438 38.238281 31.25 37.675781 L 31.25 22.324219 C 31.6875 22.207031 32.105469 22.035156 32.492188 21.808594 L 38.191406 27.507812 C 37.742188 28.261719 37.503906 29.121094 37.5 30 C 37.5 32.757812 39.742188 35 42.5 35 C 45.257812 35 47.5 32.757812 47.5 30 C 47.5 27.242188 45.257812 25 42.5 25 C 41.5625 25 40.695312 25.273438 39.945312 25.726562 L 34.273438 20.054688 C 34.726562 19.304688 35 18.4375 35 17.5 C 35 14.742188 32.757812 12.5 30 12.5 C 29.074219 12.5 28.21875 12.769531 27.476562 13.210938 L 23.125 8.859375 L 29.117188 2.863281 C 29.605469 2.378906 30.398438 2.378906 30.886719 2.863281 L 57.132812 29.113281 C 57.371094 29.347656 57.503906 29.667969 57.503906 30 C 57.503906 30.332031 57.371094 30.652344 57.136719 30.886719 Z M 57.136719 30.886719 "/>
<path style=" stroke:none;fill-rule:nonzero;fill:rgb(100%,100%,100%);fill-opacity:1;" d="M 32.5 17.5 C 32.5 18.878906 31.378906 20 30 20 C 28.621094 20 27.5 18.878906 27.5 17.5 C 27.5 16.121094 28.621094 15 30 15 C 31.378906 15 32.5 16.121094 32.5 17.5 Z M 32.5 17.5 "/>
<path style=" stroke:none;fill-rule:nonzero;fill:rgb(100%,100%,100%);fill-opacity:1;" d="M 32.5 42.5 C 32.5 43.878906 31.378906 45 30 45 C 28.621094 45 27.5 43.878906 27.5 42.5 C 27.5 41.121094 28.621094 40 30 40 C 31.378906 40 32.5 41.121094 32.5 42.5 Z M 32.5 42.5 "/>
<path style=" stroke:none;fill-rule:nonzero;fill:rgb(100%,100%,100%);fill-opacity:1;" d="M 45 30 C 45 31.378906 43.878906 32.5 42.5 32.5 C 41.121094 32.5 40 31.378906 40 30 C 40 28.621094 41.121094 27.5 42.5 27.5 C 43.878906 27.5 45 28.621094 45 30 Z M 45 30 "/>
<use xlink:href="#surface5" mask="url(#mask0)"/>
<path style=" stroke:none;fill-rule:nonzero;fill:url(#linear0);" d="M 34.273438 20.054688 L 39.945312 25.726562 C 40.695312 25.273438 41.5625 25 42.5 25 C 43.726562 25 44.832031 25.460938 45.703125 26.191406 L 33.8125 14.300781 C 34.542969 15.175781 35 16.28125 35 17.5 C 35 18.4375 34.726562 19.304688 34.273438 20.054688 Z M 46.308594 26.796875 C 47.039062 27.667969 47.5 28.773438 47.5 30 C 47.5 32.757812 45.257812 35 42.5 35 C 39.742188 35 37.5 32.757812 37.5 30 C 37.5 29.085938 37.761719 28.246094 38.191406 27.507812 L 32.492188 21.808594 C 32.109375 22.03125 31.691406 22.207031 31.25 22.324219 L 31.25 37.675781 C 33.398438 38.238281 35 40.175781 35 42.5 C 35 45.257812 32.757812 47.5 30 47.5 C 28.691406 47.5 27.511719 46.984375 26.617188 46.160156 L 34.238281 53.78125 L 53.761719 34.253906 Z M 26.28125 45.820312 L 26.34375 45.882812 L 26.285156 45.816406 Z M 26.28125 45.820312 "/>
<use xlink:href="#surface8" mask="url(#mask1)"/>
<path style=" stroke:none;fill-rule:nonzero;fill:url(#linear1);" d="M 58.90625 27.328125 C 58.902344 27.328125 58.902344 27.328125 58.90625 27.328125 L 32.65625 1.066406 C 31.238281 -0.355469 28.761719 -0.351562 27.351562 1.066406 L 1.09375 27.328125 C 0.390625 28.035156 0 28.988281 0 29.984375 C 0 30.984375 0.390625 31.925781 1.097656 32.636719 L 27.34375 58.898438 C 28.054688 59.609375 28.996094 60 30 60 C 31.003906 60 31.945312 59.609375 32.652344 58.898438 L 58.902344 32.636719 C 59.609375 31.925781 60 30.984375 60 29.984375 C 60 28.984375 59.609375 28.039062 58.90625 27.328125 Z M 58.90625 27.328125 "/>
</g>
</svg>
